<?xml version="1.0" encoding="utf-8"?>
<!-- Generator: Adobe Illustrator 23.0.3, SVG Export Plug-In . SVG Version: 6.00 Build 0)  -->
<svg version="1.1" id="Camada_1" xmlns="http://www.w3.org/2000/svg" xmlns:xlink="http://www.w3.org/1999/xlink" x="0px" y="0px"
	 viewBox="0 0 43.76 46.39" style="enable-background:new 0 0 43.76 46.39;" xml:space="preserve">
<style type="text/css">
	.st0{fill:#B5DE4E;}
</style>
<g>
	<path class="st0" d="M1.42,44.69c1.98-2.5,3.95-5,5.92-7.48c-2.13-3.37-4.3-5.08-7.34,0.22c0-2.27,0-3.62,0-3.61
		c2.81-2.25,4.91-3.73,6.77-5.47c9.36-8.77,18.61-17.66,27.98-26.41c3.27-3.06,5.86-2.42,7.72,1.61c2.56,5.55,1.26,11.26-3.49,15.32
		c-1.77,1.51-3.73,2.85-5.27,4.57c-1.53,1.72-2.92,3.63-0.46,6.02c0.91,0.88,1.54,2.92,1.17,4.08c-1,3.2-4.17,6.01-1,9.7
		c0.12,0.14-1.22,2.19-2.04,2.32c-1.04,0.16-2.25-0.73-3.03-2.31c0.95,0.08,1.9,0.17,3.24,0.29c-1.69-3.22-3.3-5.93-4.52-8.81
		c-0.46-1.09-0.52-2.92,0.1-3.81c3.05-4.41,5.96-9.07,9.76-12.77c3.88-3.78,5.83-7.44,3.57-13.56C27.87,18.79,15.6,32.59,3.32,46.39
		C2.69,45.82,2.05,45.25,1.42,44.69z M25.8,16.38c-0.57-0.48-1.14-0.95-1.71-1.43c-3.33,3.09-6.67,6.19-10.62,9.85
		c1.51,0.66,3.17,1.74,3.44,1.46C20,23.08,22.87,19.7,25.8,16.38z"/>
</g>
</svg>
