<?xml version="1.0" encoding="utf-8"?>
<!-- Generator: Adobe Illustrator 23.0.4, SVG Export Plug-In . SVG Version: 6.00 Build 0)  -->
<svg version="1.1" xmlns="http://www.w3.org/2000/svg" xmlns:xlink="http://www.w3.org/1999/xlink" x="0px" y="0px"
	 viewBox="0 0 1280 250" style="enable-background:new 0 0 1280 250;" xml:space="preserve">
<style type="text/css">
	.st0{fill:#C6D2BE;}
	.st1{opacity:0.65;}
	.st2{fill:#FFFFFF;}
	.st3{font-family:'Interstate-Bold';}
	.st4{font-size:21.498px;}
	.st5{font-size:50px;}
</style>
<g id="Fund3">
	<g id="Background">
		<rect class="st0" width="1280" height="250"/>
	</g>
	<g id="D_-_Fundraising_-_img3">
		
			<image style="overflow:visible;" width="5184" height="3456" xlink:href="../../../Downloads/eliabe-costa-702725-unsplash.jpg"  transform="matrix(3.954475e-02 0 0 -3.954475e-02 1036.3074 216.0993)">
		</image>
	</g>
	<path id="D_-_Fundraising-_button3" class="st1" d="M1219.9,177h-160.7c-11.7,0-21.1-9.5-21.1-21.1v-8.5c0-11.7,9.5-21.1,21.1-21.1
		h160.7c11.7,0,21.1,9.5,21.1,21.1v8.5C1241,167.5,1231.5,177,1219.9,177z"/>
	<text id="D_-_Fundraising-_text_3" transform="matrix(1 0 0 1 1067.7317 144.9577)"><tspan x="0" y="0" class="st2 st3 st4">Komoka Creek</tspan><tspan x="-27.1" y="25.8" class="st2 st3 st4">Hydrological Study</tspan><tspan x="167.8" y="25.8" class="st3 st4"> </tspan></text>
</g>
<g id="Fund1">
	<g id="D_-_Fundraising_-_img1">
		
			<image style="overflow:visible;" width="184" height="150" xlink:href="../TRAA Assets/project-img2.jpg"  transform="matrix(1.1193 0 0 0.9733 65 74.766)">
		</image>
	</g>
	<path id="D_-_Fundraising-_button3_1_" class="st1" d="M250,177H86.3c-11.7,0-21.1-9.5-21.1-21.1v-9.3c0-11.7,9.5-21.1,21.1-21.1
		H250c11.7,0,21.1,9.5,21.1,21.1v9.3C271.2,167.5,261.7,177,250,177z"/>
	<text id="D_-_Fundraising-_text_3_1_" transform="matrix(1 0 0 1 96.7316 144.9577)"><tspan x="0" y="0" class="st2 st3 st4">Komoka Creek</tspan><tspan x="-27.1" y="25.8" class="st2 st3 st4">Hydrological Study</tspan><tspan x="167.8" y="25.8" class="st3 st4"> </tspan></text>
	<text transform="matrix(1 0 0 1 488.6143 50.8916)" class="st3 st5">FUNDRAISING</text>
</g>
<g id="Fund2">
	<g>
		
			<image style="overflow:visible;" width="4810" height="3207" xlink:href="../../../Downloads/luke-chesser-1399685-unsplash.jpg"  transform="matrix(4.261954e-02 0 0 4.261954e-02 576 79.4255)">
		</image>
	</g>
	<path id="D_-_Fundraising-_button3_2_" class="st1" d="M759.9,177H596.3c-11.7,0-21.1-9.5-21.1-21.1v-9.2
		c0-11.7,9.5-21.1,21.1-21.1h163.6c11.7,0,21.1,9.5,21.1,21.1v9.2C781,167.5,771.5,177,759.9,177z"/>
	<text id="D_-_Fundraising-_text_3_2_" transform="matrix(1 0 0 1 604.7316 144.9577)"><tspan x="0" y="0" class="st2 st3 st4">Komoka Creek</tspan><tspan x="-27.1" y="25.8" class="st2 st3 st4">Hydrological Study</tspan><tspan x="167.8" y="25.8" class="st3 st4"> </tspan></text>
</g>
</svg>
