<svg id="Layer_1" data-name="Layer 1" xmlns="http://www.w3.org/2000/svg" viewBox="0 0 74.27 66.02"><defs><style>.cls-1{fill:#b5de4e;}.cls-2{fill:#fff;}</style></defs><title>handshake-icon</title><path class="cls-1" d="M20.36,17.1c8.86,8.88,17.06,1.95,24.13.12L63.4,36.8c3.44-.76,6.14-1.44,8.89-1.88.59-.09,1.32.71,2,1.1-.54.58-1,1.4-1.64,1.67-.89.37-2.14,0-2.9.51-1,.64-2.32,1.69-2.48,2.73-.52,3.19-1.91,5.3-5.13,6.15-.7.19-1.72.82-1.82,1.38C59.54,52.8,56.57,54,52.66,54,51.5,58.12,49,60.34,44.8,59.88c-3.12,7-6.69,7.9-12.35,3.23-.19-.16-.37-.48-.55-.48a10.39,10.39,0,0,1-9.78-6.14c-.93-1.79-2.86-3.08-4.37-4.56-.48-.48-1.09-.84-1.59-1.3C13,47.78,9.8,45,6.82,42c-.75-.76-.72-2.3-1.08-3.58C.05,36.27.05,36.27.05,29.8c0-8,.09-16,0-24C0,2.75.55,1.28,4,2.46,14.78,6.15,26,5.07,37,4.89c2.65,0,5.37-1.78,7.89-3.06,5-2.56,9.53-2.57,14.37.82,1.81,1.27,4.89.92,7.4.92,1.83,0,3.66-.75,5.52-.91.64-.06,1.36.66,2,1-.4.55-.72,1.48-1.21,1.59-5.75,1.2-11.46,3.78-17.11-.91a7.62,7.62,0,0,0-6.6-1C39.67,7.63,30.21,12.37,20.36,17.1ZM16.9,38.19c-1.81-1.41-3.35-3-3.65-2.79a19.53,19.53,0,0,0-4.1,4.12c-.1.14,1.78,2.36,2.12,2.21A42,42,0,0,0,16.9,38.19ZM28.75,60.43c1.82-2.23,3.22-3.55,4-5.17.21-.42-1.5-1.77-2.33-2.7a26,26,0,0,0-3.93,4C26.22,57,27.59,58.5,28.75,60.43ZM22.66,43.82C20.85,42.53,19.34,41,19,41.24A15.45,15.45,0,0,0,15,45.17c-.12.17,2,2.58,2.35,2.41C19,46.8,20.43,45.49,22.66,43.82Zm2.1,1.9c-1.79,2.22-3.19,3.55-4,5.17-.21.43,1.49,1.78,2.31,2.7a25.48,25.48,0,0,0,3.9-4C27.28,49.13,25.91,47.63,24.76,45.72Z"/><path class="cls-2" d="M16.9,38.19a42,42,0,0,1-5.63,3.54c-.34.15-2.22-2.07-2.12-2.21a19.53,19.53,0,0,1,4.1-4.12C13.55,35.2,15.09,36.78,16.9,38.19Z"/><path class="cls-2" d="M28.75,60.43C27.59,58.5,26.22,57,26.5,56.56a26,26,0,0,1,3.93-4c.83.93,2.54,2.28,2.33,2.7C32,56.88,30.57,58.2,28.75,60.43Z"/><path class="cls-2" d="M22.66,43.82c-2.23,1.67-3.63,3-5.29,3.76-.36.17-2.47-2.24-2.35-2.41A15.45,15.45,0,0,1,19,41.24C19.34,41,20.85,42.53,22.66,43.82Z"/><path class="cls-2" d="M24.76,45.72c1.15,1.91,2.52,3.41,2.24,3.85a25.48,25.48,0,0,1-3.9,4c-.82-.92-2.52-2.27-2.31-2.7C21.57,49.27,23,47.94,24.76,45.72Z"/></svg>