<svg id="Layer_1" data-name="Layer 1" xmlns="http://www.w3.org/2000/svg" viewBox="0 0 63.19 68.43"><defs><style>.cls-1{fill:#b5de4e;}</style></defs><title>leaf-icon</title><path class="cls-1" d="M21.46,58.1c-3.74-2.83-7.43-5-10.35-8-6.46-6.51-7.27-15.09-2.68-23,4.4-7.61,11-12.42,19.21-15.24,2.48-.86,5-1.55,7.54-2.21C42,7.89,49.32,7.27,54.73,0c.52,1.25.77,1.83,1,2.42C61.32,15.85,65,29.6,62.3,44.3,60.89,52,57.46,58.71,51.18,63.66c-5.71,4.51-12.2,6.07-18.92,3.09-3.1-1.37-5.48-4.35-8-6.46-4,2.23-8.26,5.12-12.92,7-2.84,1.17-6.3,1-9.49,1.1-.58,0-1.22-1.18-1.83-1.82.7-.34,1.44-1,2.09-1C10.05,66.6,15.86,62.38,21.46,58.1Zm3.85.55A103.89,103.89,0,0,0,49.44,25.22c.4-.9,0-2.17,0-3.26-.86.64-2.12,1.1-2.51,2A101.08,101.08,0,0,1,22.82,57Z"/></svg>