<?xml version="1.0" encoding="utf-8"?>
<!-- Generator: Adobe Illustrator 23.0.1, SVG Export Plug-In . SVG Version: 6.00 Build 0)  -->
<svg version="1.1" id="Layer_1" xmlns="http://www.w3.org/2000/svg" xmlns:xlink="http://www.w3.org/1999/xlink" x="0px" y="0px"
	 viewBox="0 0 49.8 47.8" style="enable-background:new 0 0 49.8 47.8;" xml:space="preserve">
<style type="text/css">
	.st0{fill:#B5DE4E;}
</style>
<title>people-icon</title>
<path class="st0" d="M16.7,24c-0.9-4.3,1.9-5.8,5-6.6c2.5-0.6,2.3-2.3,1.1-3.5c-2.5-2.6-1.9-6-2.9-9c-0.3-0.7,0-1.6,0.8-1.9
	c1.5-1.1,3.2-2.3,5.1-1.3s4.3,1.9,3.7,5.1c-0.5,2.4-0.7,4.9-2.4,6.9c-1.3,1.6-1.5,3,1.1,3.7c3,0.9,5.8,2.1,4.8,6.5
	c1.1-0.5,2.2-0.9,3.4-1.3c2.8-0.7,2.7-2.2,1.1-3.9c-2.4-2.6-2.1-6.1-2.5-9.1c-0.3-2,2.3-2.7,4.1-3c2.7-0.4,5.4,2.4,5.3,5.1
	c0.1,2.6-0.7,5.2-2.4,7.3c-1,1.2-1.8,2.9,1,3.5c4.7,0.9,5,4.1,5.3,8.3c0.5,9.3-2.8,11.4-11.3,14.5c-0.7,0.2-1.5,0.9-2.3-0.3
	c-2.7-3.8-2.7-3.8-6.8-5.6c2-2.8,3.1-6.1,3.2-9.5c0.1-4.1-3-4.9-5.6-6c-2.1-0.9-7.8,1.9-7.5,3.7c0.6,3.2,0.5,6.8,2.5,9.6
	c1.2,1.7,1.7,2.4-0.8,3.2c-2.1,0.7-4.3,1.6-4.6,4.3c-0.2,1.5-1.4,0.7-2,0.5c-2.5-0.7-4.9-1.7-7.2-3.2c-2.8-2-4.7-4.5-4.3-8.2
	c0.2-1.4,0.2-2.8,0-4.1c-0.7-4.1,1.1-6.5,5-7.3c2.4-0.5,2.4-2.2,1.3-3.4C5.2,16.5,5.8,13,5,9.8C4.6,8.2,6.4,7.7,7.6,7.1
	C10,6,13,7.1,14.1,9.6c0.3,0.6,0.4,1.3,0.4,2c0,2.3-0.2,4.8-1.6,6.4c-2.7,3.1-1.5,4.3,1.8,5.2C15.3,23.4,16,23.7,16.7,24z"/>
</svg>
