<svg id="Layer_1" data-name="Layer 1" xmlns="http://www.w3.org/2000/svg" viewBox="0 0 65.24 73.7"><defs><style>.cls-1{fill:#b5de4e;}</style></defs><title>shield-icon</title><path class="cls-1" d="M30,0h5.25c9.3,3.79,18.63,7.52,27.87,11.46a4.15,4.15,0,0,1,2.11,3.09,72,72,0,0,1-.78,11.18C61.63,44.05,53.12,59.14,38.35,70.5c-5.57,4.29-5.75,4.23-11.54,0A61.06,61.06,0,0,1,10.22,52.43,72.74,72.74,0,0,1,0,13.35ZM20.28,35.89,31.85,46.34,46.48,23.63c-1.68-2.09-2.65-1.46-3.76.3-3.7,5.9-7.53,11.73-11.47,17.83l-9-8.06Z"/></svg>