<svg id="Wallet-icon" xmlns="http://www.w3.org/2000/svg" viewBox="0 0 74.15 74.29"><defs><style>.cls-1{fill:#b5de4e;}</style></defs><title>wallet-icon</title><path id="Wallet" class="cls-1" d="M63.62,0c.55,1.45,1.56,2.89,1.58,4.35.15,9,0,18,.11,27,0,3.23-1.33,4.48-4.47,4.47q-20.78-.08-41.56,0c-3.08,0-4.57-1.15-4.53-4.43.12-9,0-18,.11-26.95,0-1.47,1-2.93,1.51-4.39ZM40.47,7.49a48.51,48.51,0,0,0-6.72.1c-.9.13-1.63,1.38-2.44,2.13.71.72,1.4,2,2.14,2.06,4.35.21,8.73.23,13.08,0,.79,0,1.5-1.53,2.25-2.34C48,8.8,47.29,7.71,46.44,7.58A44,44,0,0,0,40.47,7.49Z"/><path id="Hand" class="cls-1" d="M26.43,58.13c9.63.9,19.4,4,28.5-2.84,3.49-2.63,7.19-5,10.89-7.29a10.14,10.14,0,0,1,4.48-1.6,3.45,3.45,0,0,1,3.26,5.36,14.42,14.42,0,0,1-4.21,4.13C61.26,61.32,53,66.54,45,72a11.84,11.84,0,0,1-13.05.68C28.25,70.74,24.5,69,21,66.85c-3.29-2-6.2-2.25-9.18.43-2.25,2-3.77,1.59-5-1.31C4.92,61.23,2.77,56.58.58,52c-1-2.14-.8-3.41,1.58-4.32,4.19-1.6,8.21-3.65,12.45-5.09,6.12-2.07,11.47-.88,16.69,3.4,2.86,2.35,7.17,2.95,10.87,4.23,1,.36,2.51,0,3.26.54,1.31,1,3.13,2.63,3,3.86s-2.29,3.15-3.61,3.19c-5,.15-9.94-.32-14.91-.61a31.39,31.39,0,0,1-3.47-.58Z"/><path id="Finger1" class="cls-1" d="M50.69,56.14,49.4,50.47c7.28-6.4,13.56-9.69,16.8-4.61Z"/><path id="Finger2" class="cls-1" d="M39.41,47.9c5.87-2.53,9.9-8.54,17.28-4.87C51.72,47,47.23,51.39,39.41,47.9Z"/></svg>